<mxfile host="65bd71144e">
    <diagram id="I9FQbxelefLgMyFjd0UU" name="Page-1">
        <mxGraphModel dx="1073" dy="1731" grid="1" gridSize="10" guides="1" tooltips="1" connect="1" arrows="1" fold="1" page="1" pageScale="1" pageWidth="1169" pageHeight="827" math="0" shadow="0">
            <root>
                <mxCell id="0"/>
                <mxCell id="1" parent="0"/>
                <mxCell id="135" value="" style="swimlane;startSize=0;" parent="1" vertex="1">
                    <mxGeometry x="1722" y="54" width="1200" height="720" as="geometry"/>
                </mxCell>
                <mxCell id="136" value="" style="rounded=0;whiteSpace=wrap;html=1;" parent="135" vertex="1">
                    <mxGeometry width="360" height="80" as="geometry"/>
                </mxCell>
                <mxCell id="137" value="" style="rounded=0;whiteSpace=wrap;html=1;" parent="135" vertex="1">
                    <mxGeometry width="1200" height="720" as="geometry"/>
                </mxCell>
                <mxCell id="143" value="&lt;div style=&quot;text-align: justify; font-size: 16px;&quot;&gt;Villa Bella&lt;/div&gt;&lt;div style=&quot;text-align: justify; font-size: 14px;&quot;&gt;&lt;span style=&quot;background-color: initial;&quot;&gt;&lt;font style=&quot;font-size: 14px;&quot;&gt;Petite villa au coeur de Toulon ...&lt;/font&gt;&lt;/span&gt;&lt;/div&gt;&lt;div style=&quot;text-align: right;&quot;&gt;&lt;span style=&quot;font-size: 20px;&quot;&gt;80 € / pers&lt;/span&gt;&lt;/div&gt;" style="rounded=0;whiteSpace=wrap;html=1;align=left;" parent="135" vertex="1">
                    <mxGeometry x="32" y="326" width="210" height="90" as="geometry"/>
                </mxCell>
                <mxCell id="150" value="&lt;font style=&quot;font-size: 24px;&quot;&gt;Connexion&amp;nbsp; Inscription&amp;nbsp;&amp;nbsp;&lt;/font&gt;" style="rounded=0;whiteSpace=wrap;html=1;align=right;" parent="135" vertex="1">
                    <mxGeometry width="1200" height="80" as="geometry"/>
                </mxCell>
                <mxCell id="138" value="Search" style="strokeWidth=1;shadow=0;dashed=0;align=center;html=1;shape=mxgraph.mockup.forms.searchBox;strokeColor=#999999;mainText=;strokeColor2=#008cff;fontColor=#666666;fontSize=17;align=left;spacingLeft=3;" parent="135" vertex="1">
                    <mxGeometry x="81" y="20" width="160" height="40" as="geometry"/>
                </mxCell>
                <mxCell id="140" value="Filtres" style="ellipse;whiteSpace=wrap;html=1;aspect=fixed;" parent="135" vertex="1">
                    <mxGeometry x="257.5" y="17.5" width="45" height="45" as="geometry"/>
                </mxCell>
                <mxCell id="141" value="Logo" style="ellipse;whiteSpace=wrap;html=1;" parent="135" vertex="1">
                    <mxGeometry x="7.5" y="10" width="60" height="60" as="geometry"/>
                </mxCell>
                <mxCell id="247" value="&lt;font style=&quot;font-size: 50px;&quot;&gt;Picture&lt;/font&gt;" style="whiteSpace=wrap;html=1;aspect=fixed;fontSize=20;" vertex="1" parent="135">
                    <mxGeometry x="32" y="100" width="210" height="210" as="geometry"/>
                </mxCell>
                <mxCell id="248" value="&lt;div style=&quot;text-align: justify; font-size: 16px;&quot;&gt;Villa Bella&lt;/div&gt;&lt;div style=&quot;text-align: justify; font-size: 14px;&quot;&gt;&lt;span style=&quot;background-color: initial;&quot;&gt;&lt;font style=&quot;font-size: 14px;&quot;&gt;Petite villa au coeur de Toulon ...&lt;/font&gt;&lt;/span&gt;&lt;/div&gt;&lt;div style=&quot;text-align: right;&quot;&gt;&lt;span style=&quot;font-size: 20px;&quot;&gt;80 € / pers&lt;/span&gt;&lt;/div&gt;" style="rounded=0;whiteSpace=wrap;html=1;align=left;" vertex="1" parent="135">
                    <mxGeometry x="495" y="326" width="210" height="90" as="geometry"/>
                </mxCell>
                <mxCell id="249" value="&lt;font style=&quot;font-size: 50px;&quot;&gt;Picture&lt;/font&gt;" style="whiteSpace=wrap;html=1;aspect=fixed;fontSize=20;" vertex="1" parent="135">
                    <mxGeometry x="495" y="100" width="210" height="210" as="geometry"/>
                </mxCell>
                <mxCell id="250" value="&lt;div style=&quot;text-align: justify; font-size: 16px;&quot;&gt;Villa Bella&lt;/div&gt;&lt;div style=&quot;text-align: justify; font-size: 14px;&quot;&gt;&lt;span style=&quot;background-color: initial;&quot;&gt;&lt;font style=&quot;font-size: 14px;&quot;&gt;Petite villa au coeur de Toulon ...&lt;/font&gt;&lt;/span&gt;&lt;/div&gt;&lt;div style=&quot;text-align: right;&quot;&gt;&lt;span style=&quot;font-size: 20px;&quot;&gt;80 € / pers&lt;/span&gt;&lt;/div&gt;" style="rounded=0;whiteSpace=wrap;html=1;align=left;" vertex="1" parent="135">
                    <mxGeometry x="268" y="326" width="210" height="90" as="geometry"/>
                </mxCell>
                <mxCell id="251" value="&lt;font style=&quot;font-size: 50px;&quot;&gt;Picture&lt;/font&gt;" style="whiteSpace=wrap;html=1;aspect=fixed;fontSize=20;" vertex="1" parent="135">
                    <mxGeometry x="268" y="100" width="210" height="210" as="geometry"/>
                </mxCell>
                <mxCell id="252" value="&lt;div style=&quot;text-align: justify; font-size: 16px;&quot;&gt;Villa Bella&lt;/div&gt;&lt;div style=&quot;text-align: justify; font-size: 14px;&quot;&gt;&lt;span style=&quot;background-color: initial;&quot;&gt;&lt;font style=&quot;font-size: 14px;&quot;&gt;Petite villa au coeur de Toulon ...&lt;/font&gt;&lt;/span&gt;&lt;/div&gt;&lt;div style=&quot;text-align: right;&quot;&gt;&lt;span style=&quot;font-size: 20px;&quot;&gt;80 € / pers&lt;/span&gt;&lt;/div&gt;" style="rounded=0;whiteSpace=wrap;html=1;align=left;" vertex="1" parent="135">
                    <mxGeometry x="728" y="326" width="210" height="90" as="geometry"/>
                </mxCell>
                <mxCell id="253" value="&lt;font style=&quot;font-size: 50px;&quot;&gt;Picture&lt;/font&gt;" style="whiteSpace=wrap;html=1;aspect=fixed;fontSize=20;" vertex="1" parent="135">
                    <mxGeometry x="728" y="100" width="210" height="210" as="geometry"/>
                </mxCell>
                <mxCell id="254" value="&lt;div style=&quot;text-align: justify; font-size: 16px;&quot;&gt;Villa Bella&lt;/div&gt;&lt;div style=&quot;text-align: justify; font-size: 14px;&quot;&gt;&lt;span style=&quot;background-color: initial;&quot;&gt;&lt;font style=&quot;font-size: 14px;&quot;&gt;Petite villa au coeur de Toulon ...&lt;/font&gt;&lt;/span&gt;&lt;/div&gt;&lt;div style=&quot;text-align: right;&quot;&gt;&lt;span style=&quot;font-size: 20px;&quot;&gt;80 € / pers&lt;/span&gt;&lt;/div&gt;" style="rounded=0;whiteSpace=wrap;html=1;align=left;" vertex="1" parent="135">
                    <mxGeometry x="958" y="326" width="210" height="90" as="geometry"/>
                </mxCell>
                <mxCell id="255" value="&lt;font style=&quot;font-size: 50px;&quot;&gt;Picture&lt;/font&gt;" style="whiteSpace=wrap;html=1;aspect=fixed;fontSize=20;" vertex="1" parent="135">
                    <mxGeometry x="958" y="100" width="210" height="210" as="geometry"/>
                </mxCell>
                <mxCell id="256" value="&lt;div style=&quot;text-align: justify; font-size: 16px;&quot;&gt;Villa Bella&lt;/div&gt;" style="rounded=0;whiteSpace=wrap;html=1;align=left;" vertex="1" parent="135">
                    <mxGeometry x="31" y="662" width="210" height="58" as="geometry"/>
                </mxCell>
                <mxCell id="257" value="&lt;font style=&quot;font-size: 50px;&quot;&gt;Picture&lt;/font&gt;" style="whiteSpace=wrap;html=1;aspect=fixed;fontSize=20;" vertex="1" parent="135">
                    <mxGeometry x="31" y="436" width="210" height="210" as="geometry"/>
                </mxCell>
                <mxCell id="258" value="&lt;div style=&quot;text-align: justify; font-size: 16px;&quot;&gt;Villa Bella&lt;/div&gt;" style="rounded=0;whiteSpace=wrap;html=1;align=left;" vertex="1" parent="135">
                    <mxGeometry x="268" y="662" width="210" height="58" as="geometry"/>
                </mxCell>
                <mxCell id="259" value="&lt;font style=&quot;font-size: 50px;&quot;&gt;Picture&lt;/font&gt;" style="whiteSpace=wrap;html=1;aspect=fixed;fontSize=20;" vertex="1" parent="135">
                    <mxGeometry x="268" y="436" width="210" height="210" as="geometry"/>
                </mxCell>
                <mxCell id="260" value="&lt;div style=&quot;text-align: justify; font-size: 16px;&quot;&gt;Villa Bella&lt;/div&gt;" style="rounded=0;whiteSpace=wrap;html=1;align=left;" vertex="1" parent="135">
                    <mxGeometry x="495" y="662" width="210" height="58" as="geometry"/>
                </mxCell>
                <mxCell id="261" value="&lt;font style=&quot;font-size: 50px;&quot;&gt;Picture&lt;/font&gt;" style="whiteSpace=wrap;html=1;aspect=fixed;fontSize=20;" vertex="1" parent="135">
                    <mxGeometry x="495" y="436" width="210" height="210" as="geometry"/>
                </mxCell>
                <mxCell id="262" value="&lt;div style=&quot;text-align: justify; font-size: 16px;&quot;&gt;Villa Bella&lt;/div&gt;" style="rounded=0;whiteSpace=wrap;html=1;align=left;" vertex="1" parent="135">
                    <mxGeometry x="728" y="662" width="210" height="58" as="geometry"/>
                </mxCell>
                <mxCell id="263" value="&lt;font style=&quot;font-size: 50px;&quot;&gt;Picture&lt;/font&gt;" style="whiteSpace=wrap;html=1;aspect=fixed;fontSize=20;" vertex="1" parent="135">
                    <mxGeometry x="728" y="436" width="210" height="210" as="geometry"/>
                </mxCell>
                <mxCell id="264" value="&lt;div style=&quot;text-align: justify; font-size: 16px;&quot;&gt;Villa Bella&lt;/div&gt;" style="rounded=0;whiteSpace=wrap;html=1;align=left;" vertex="1" parent="135">
                    <mxGeometry x="958" y="662" width="210" height="58" as="geometry"/>
                </mxCell>
                <mxCell id="265" value="&lt;font style=&quot;font-size: 50px;&quot;&gt;Picture&lt;/font&gt;" style="whiteSpace=wrap;html=1;aspect=fixed;fontSize=20;" vertex="1" parent="135">
                    <mxGeometry x="958" y="436" width="210" height="210" as="geometry"/>
                </mxCell>
                <mxCell id="151" value="" style="swimlane;startSize=0;" parent="1" vertex="1">
                    <mxGeometry x="1723" y="860" width="1200" height="720" as="geometry"/>
                </mxCell>
                <mxCell id="152" value="" style="rounded=0;whiteSpace=wrap;html=1;" parent="151" vertex="1">
                    <mxGeometry width="360" height="80" as="geometry"/>
                </mxCell>
                <mxCell id="153" value="" style="rounded=0;whiteSpace=wrap;html=1;" parent="151" vertex="1">
                    <mxGeometry width="1200" height="720" as="geometry"/>
                </mxCell>
                <mxCell id="213" value="" style="rounded=0;whiteSpace=wrap;html=1;" parent="151" vertex="1">
                    <mxGeometry width="360" height="80" as="geometry"/>
                </mxCell>
                <mxCell id="214" value="&lt;font style=&quot;font-size: 24px;&quot;&gt;Mon compte&amp;nbsp; Déconnexion&amp;nbsp;&amp;nbsp;&lt;/font&gt;" style="rounded=0;whiteSpace=wrap;html=1;align=right;" parent="151" vertex="1">
                    <mxGeometry width="1200" height="80" as="geometry"/>
                </mxCell>
                <mxCell id="215" value="Search" style="strokeWidth=1;shadow=0;dashed=0;align=center;html=1;shape=mxgraph.mockup.forms.searchBox;strokeColor=#999999;mainText=;strokeColor2=#008cff;fontColor=#666666;fontSize=17;align=left;spacingLeft=3;" parent="151" vertex="1">
                    <mxGeometry x="81" y="20" width="160" height="40" as="geometry"/>
                </mxCell>
                <mxCell id="216" value="Filtres" style="ellipse;whiteSpace=wrap;html=1;aspect=fixed;" parent="151" vertex="1">
                    <mxGeometry x="257.5" y="17.5" width="45" height="45" as="geometry"/>
                </mxCell>
                <mxCell id="217" value="Logo" style="ellipse;whiteSpace=wrap;html=1;" parent="151" vertex="1">
                    <mxGeometry x="7.5" y="10" width="60" height="60" as="geometry"/>
                </mxCell>
                <mxCell id="266" value="&lt;div style=&quot;text-align: justify; font-size: 16px;&quot;&gt;Villa Bella&lt;/div&gt;&lt;div style=&quot;text-align: justify; font-size: 14px;&quot;&gt;&lt;span style=&quot;background-color: initial;&quot;&gt;&lt;font style=&quot;font-size: 14px;&quot;&gt;Petite villa au coeur de Toulon ...&lt;/font&gt;&lt;/span&gt;&lt;/div&gt;&lt;div style=&quot;text-align: right;&quot;&gt;&lt;span style=&quot;font-size: 20px;&quot;&gt;80 € / pers&lt;/span&gt;&lt;/div&gt;" style="rounded=0;whiteSpace=wrap;html=1;align=left;" vertex="1" parent="151">
                    <mxGeometry x="32" y="326" width="210" height="90" as="geometry"/>
                </mxCell>
                <mxCell id="267" value="&lt;font style=&quot;font-size: 50px;&quot;&gt;Picture&lt;/font&gt;" style="whiteSpace=wrap;html=1;aspect=fixed;fontSize=20;" vertex="1" parent="151">
                    <mxGeometry x="32" y="100" width="210" height="210" as="geometry"/>
                </mxCell>
                <mxCell id="268" value="&lt;div style=&quot;text-align: justify; font-size: 16px;&quot;&gt;Villa Bella&lt;/div&gt;&lt;div style=&quot;text-align: justify; font-size: 14px;&quot;&gt;&lt;span style=&quot;background-color: initial;&quot;&gt;&lt;font style=&quot;font-size: 14px;&quot;&gt;Petite villa au coeur de Toulon ...&lt;/font&gt;&lt;/span&gt;&lt;/div&gt;&lt;div style=&quot;text-align: right;&quot;&gt;&lt;span style=&quot;font-size: 20px;&quot;&gt;80 € / pers&lt;/span&gt;&lt;/div&gt;" style="rounded=0;whiteSpace=wrap;html=1;align=left;" vertex="1" parent="151">
                    <mxGeometry x="495" y="326" width="210" height="90" as="geometry"/>
                </mxCell>
                <mxCell id="269" value="&lt;font style=&quot;font-size: 50px;&quot;&gt;Picture&lt;/font&gt;" style="whiteSpace=wrap;html=1;aspect=fixed;fontSize=20;" vertex="1" parent="151">
                    <mxGeometry x="495" y="100" width="210" height="210" as="geometry"/>
                </mxCell>
                <mxCell id="270" value="&lt;div style=&quot;text-align: justify; font-size: 16px;&quot;&gt;Villa Bella&lt;/div&gt;&lt;div style=&quot;text-align: justify; font-size: 14px;&quot;&gt;&lt;span style=&quot;background-color: initial;&quot;&gt;&lt;font style=&quot;font-size: 14px;&quot;&gt;Petite villa au coeur de Toulon ...&lt;/font&gt;&lt;/span&gt;&lt;/div&gt;&lt;div style=&quot;text-align: right;&quot;&gt;&lt;span style=&quot;font-size: 20px;&quot;&gt;80 € / pers&lt;/span&gt;&lt;/div&gt;" style="rounded=0;whiteSpace=wrap;html=1;align=left;" vertex="1" parent="151">
                    <mxGeometry x="268" y="326" width="210" height="90" as="geometry"/>
                </mxCell>
                <mxCell id="271" value="&lt;font style=&quot;font-size: 50px;&quot;&gt;Picture&lt;/font&gt;" style="whiteSpace=wrap;html=1;aspect=fixed;fontSize=20;" vertex="1" parent="151">
                    <mxGeometry x="268" y="100" width="210" height="210" as="geometry"/>
                </mxCell>
                <mxCell id="272" value="&lt;div style=&quot;text-align: justify; font-size: 16px;&quot;&gt;Villa Bella&lt;/div&gt;&lt;div style=&quot;text-align: justify; font-size: 14px;&quot;&gt;&lt;span style=&quot;background-color: initial;&quot;&gt;&lt;font style=&quot;font-size: 14px;&quot;&gt;Petite villa au coeur de Toulon ...&lt;/font&gt;&lt;/span&gt;&lt;/div&gt;&lt;div style=&quot;text-align: right;&quot;&gt;&lt;span style=&quot;font-size: 20px;&quot;&gt;80 € / pers&lt;/span&gt;&lt;/div&gt;" style="rounded=0;whiteSpace=wrap;html=1;align=left;" vertex="1" parent="151">
                    <mxGeometry x="728" y="326" width="210" height="90" as="geometry"/>
                </mxCell>
                <mxCell id="273" value="&lt;font style=&quot;font-size: 50px;&quot;&gt;Picture&lt;/font&gt;" style="whiteSpace=wrap;html=1;aspect=fixed;fontSize=20;" vertex="1" parent="151">
                    <mxGeometry x="728" y="100" width="210" height="210" as="geometry"/>
                </mxCell>
                <mxCell id="274" value="&lt;div style=&quot;text-align: justify; font-size: 16px;&quot;&gt;Villa Bella&lt;/div&gt;&lt;div style=&quot;text-align: justify; font-size: 14px;&quot;&gt;&lt;span style=&quot;background-color: initial;&quot;&gt;&lt;font style=&quot;font-size: 14px;&quot;&gt;Petite villa au coeur de Toulon ...&lt;/font&gt;&lt;/span&gt;&lt;/div&gt;&lt;div style=&quot;text-align: right;&quot;&gt;&lt;span style=&quot;font-size: 20px;&quot;&gt;80 € / pers&lt;/span&gt;&lt;/div&gt;" style="rounded=0;whiteSpace=wrap;html=1;align=left;" vertex="1" parent="151">
                    <mxGeometry x="958" y="326" width="210" height="90" as="geometry"/>
                </mxCell>
                <mxCell id="275" value="&lt;font style=&quot;font-size: 50px;&quot;&gt;Picture&lt;/font&gt;" style="whiteSpace=wrap;html=1;aspect=fixed;fontSize=20;" vertex="1" parent="151">
                    <mxGeometry x="958" y="100" width="210" height="210" as="geometry"/>
                </mxCell>
                <mxCell id="276" value="&lt;div style=&quot;text-align: justify; font-size: 16px;&quot;&gt;Villa Bella&lt;/div&gt;" style="rounded=0;whiteSpace=wrap;html=1;align=left;" vertex="1" parent="151">
                    <mxGeometry x="31" y="662" width="210" height="58" as="geometry"/>
                </mxCell>
                <mxCell id="277" value="&lt;font style=&quot;font-size: 50px;&quot;&gt;Picture&lt;/font&gt;" style="whiteSpace=wrap;html=1;aspect=fixed;fontSize=20;" vertex="1" parent="151">
                    <mxGeometry x="31" y="436" width="210" height="210" as="geometry"/>
                </mxCell>
                <mxCell id="278" value="&lt;div style=&quot;text-align: justify; font-size: 16px;&quot;&gt;Villa Bella&lt;/div&gt;" style="rounded=0;whiteSpace=wrap;html=1;align=left;" vertex="1" parent="151">
                    <mxGeometry x="268" y="662" width="210" height="58" as="geometry"/>
                </mxCell>
                <mxCell id="279" value="&lt;font style=&quot;font-size: 50px;&quot;&gt;Picture&lt;/font&gt;" style="whiteSpace=wrap;html=1;aspect=fixed;fontSize=20;" vertex="1" parent="151">
                    <mxGeometry x="268" y="436" width="210" height="210" as="geometry"/>
                </mxCell>
                <mxCell id="280" value="&lt;div style=&quot;text-align: justify; font-size: 16px;&quot;&gt;Villa Bella&lt;/div&gt;" style="rounded=0;whiteSpace=wrap;html=1;align=left;" vertex="1" parent="151">
                    <mxGeometry x="495" y="662" width="210" height="58" as="geometry"/>
                </mxCell>
                <mxCell id="281" value="&lt;font style=&quot;font-size: 50px;&quot;&gt;Picture&lt;/font&gt;" style="whiteSpace=wrap;html=1;aspect=fixed;fontSize=20;" vertex="1" parent="151">
                    <mxGeometry x="495" y="436" width="210" height="210" as="geometry"/>
                </mxCell>
                <mxCell id="282" value="&lt;div style=&quot;text-align: justify; font-size: 16px;&quot;&gt;Villa Bella&lt;/div&gt;" style="rounded=0;whiteSpace=wrap;html=1;align=left;" vertex="1" parent="151">
                    <mxGeometry x="728" y="662" width="210" height="58" as="geometry"/>
                </mxCell>
                <mxCell id="283" value="&lt;font style=&quot;font-size: 50px;&quot;&gt;Picture&lt;/font&gt;" style="whiteSpace=wrap;html=1;aspect=fixed;fontSize=20;" vertex="1" parent="151">
                    <mxGeometry x="728" y="436" width="210" height="210" as="geometry"/>
                </mxCell>
                <mxCell id="284" value="&lt;div style=&quot;text-align: justify; font-size: 16px;&quot;&gt;Villa Bella&lt;/div&gt;" style="rounded=0;whiteSpace=wrap;html=1;align=left;" vertex="1" parent="151">
                    <mxGeometry x="958" y="662" width="210" height="58" as="geometry"/>
                </mxCell>
                <mxCell id="285" value="&lt;font style=&quot;font-size: 50px;&quot;&gt;Picture&lt;/font&gt;" style="whiteSpace=wrap;html=1;aspect=fixed;fontSize=20;" vertex="1" parent="151">
                    <mxGeometry x="958" y="436" width="210" height="210" as="geometry"/>
                </mxCell>
                <mxCell id="286" value="&lt;div style=&quot;text-align: justify; font-size: 16px;&quot;&gt;Villa Bella&lt;/div&gt;&lt;div style=&quot;text-align: justify; font-size: 14px;&quot;&gt;&lt;span style=&quot;background-color: initial;&quot;&gt;&lt;font style=&quot;font-size: 14px;&quot;&gt;Petite villa au coeur de Toulon ...&lt;/font&gt;&lt;/span&gt;&lt;/div&gt;&lt;div style=&quot;text-align: right;&quot;&gt;&lt;span style=&quot;font-size: 20px;&quot;&gt;80 € / pers&lt;/span&gt;&lt;/div&gt;" style="rounded=0;whiteSpace=wrap;html=1;align=left;" vertex="1" parent="151">
                    <mxGeometry x="361.5" y="336" width="220" height="90" as="geometry"/>
                </mxCell>
                <mxCell id="287" value="&lt;div style=&quot;text-align: justify; font-size: 16px;&quot;&gt;Villa Bella&lt;/div&gt;&lt;div style=&quot;text-align: justify; font-size: 14px;&quot;&gt;&lt;span style=&quot;background-color: initial;&quot;&gt;&lt;font style=&quot;font-size: 14px;&quot;&gt;Petite villa au coeur de Toulon ...&lt;/font&gt;&lt;/span&gt;&lt;/div&gt;&lt;div style=&quot;text-align: right;&quot;&gt;&lt;span style=&quot;font-size: 20px;&quot;&gt;80 € / pers&lt;/span&gt;&lt;/div&gt;" style="rounded=0;whiteSpace=wrap;html=1;align=left;" vertex="1" parent="151">
                    <mxGeometry x="605" y="336" width="220" height="90" as="geometry"/>
                </mxCell>
                <mxCell id="290" value="&lt;font style=&quot;font-size: 50px;&quot;&gt;Picture&lt;/font&gt;" style="whiteSpace=wrap;html=1;aspect=fixed;fontSize=20;" vertex="1" parent="151">
                    <mxGeometry x="520" y="136" width="250" height="300" as="geometry"/>
                </mxCell>
                <mxCell id="291" value="&lt;div style=&quot;text-align: justify; font-size: 16px;&quot;&gt;Villa Bella&lt;/div&gt;&lt;div style=&quot;text-align: justify; font-size: 14px;&quot;&gt;&lt;span style=&quot;background-color: initial;&quot;&gt;&lt;font style=&quot;font-size: 14px;&quot;&gt;Petite villa au coeur de Toulon ...&lt;/font&gt;&lt;/span&gt;&lt;/div&gt;&lt;div style=&quot;text-align: right;&quot;&gt;&lt;span style=&quot;font-size: 20px;&quot;&gt;80 € / pers&lt;/span&gt;&lt;/div&gt;" style="rounded=0;whiteSpace=wrap;html=1;align=left;" vertex="1" parent="151">
                    <mxGeometry x="520" y="446" width="250" height="90" as="geometry"/>
                </mxCell>
                <mxCell id="292" value="" style="rounded=1;whiteSpace=wrap;html=1;fontSize=50;" vertex="1" parent="151">
                    <mxGeometry x="250" y="136" width="700" height="420" as="geometry"/>
                </mxCell>
                <mxCell id="293" value="&lt;p style=&quot;line-height: 50%;&quot;&gt;&lt;br&gt;&lt;/p&gt;" style="rounded=0;whiteSpace=wrap;html=1;fontSize=50;" vertex="1" parent="151">
                    <mxGeometry x="250" y="346" width="342" height="100" as="geometry"/>
                </mxCell>
                <mxCell id="294" value="" style="rounded=1;whiteSpace=wrap;html=1;fontSize=30;" vertex="1" parent="151">
                    <mxGeometry x="268" y="386" width="140" height="60" as="geometry"/>
                </mxCell>
                <mxCell id="295" value="&lt;font style=&quot;font-size: 20px;&quot;&gt;€ ---&lt;/font&gt;" style="rounded=0;whiteSpace=wrap;html=1;fontSize=30;align=left;" vertex="1" parent="151">
                    <mxGeometry x="278" y="416" width="120" height="30" as="geometry"/>
                </mxCell>
                <mxCell id="296" value="&lt;font style=&quot;font-size: 20px;&quot;&gt;Minimum&lt;/font&gt;" style="rounded=0;whiteSpace=wrap;html=1;fontSize=30;align=left;" vertex="1" parent="151">
                    <mxGeometry x="278" y="386" width="120" height="30" as="geometry"/>
                </mxCell>
                <mxCell id="297" value="" style="rounded=1;whiteSpace=wrap;html=1;fontSize=30;" vertex="1" parent="151">
                    <mxGeometry x="428" y="386" width="140" height="60" as="geometry"/>
                </mxCell>
                <mxCell id="298" value="&lt;font style=&quot;font-size: 20px;&quot;&gt;€ ---&lt;/font&gt;" style="rounded=0;whiteSpace=wrap;html=1;fontSize=30;align=left;" vertex="1" parent="151">
                    <mxGeometry x="438" y="416" width="120" height="30" as="geometry"/>
                </mxCell>
                <mxCell id="299" value="&lt;font style=&quot;font-size: 20px;&quot;&gt;Maximum&lt;/font&gt;" style="rounded=0;whiteSpace=wrap;html=1;fontSize=30;align=left;" vertex="1" parent="151">
                    <mxGeometry x="438" y="386" width="120" height="30" as="geometry"/>
                </mxCell>
                <mxCell id="300" value="&lt;p style=&quot;line-height: 50%;&quot;&gt;&lt;br&gt;&lt;/p&gt;" style="rounded=0;whiteSpace=wrap;html=1;fontSize=50;" vertex="1" parent="151">
                    <mxGeometry x="250" y="226" width="340" height="100" as="geometry"/>
                </mxCell>
                <mxCell id="301" value="Option 1" style="strokeWidth=1;shadow=0;dashed=0;align=center;html=1;shape=mxgraph.mockup.forms.comboBox;strokeColor=#999999;fillColor=#ddeeff;align=left;fillColor2=#aaddff;mainText=;fontColor=#666666;fontSize=17;spacingLeft=3;" vertex="1" parent="151">
                    <mxGeometry x="285" y="278.5" width="270" height="35" as="geometry"/>
                </mxCell>
                <mxCell id="302" value="Valider" style="strokeWidth=1;shadow=0;dashed=0;align=center;html=1;shape=mxgraph.mockup.buttons.button;strokeColor=#666666;fontColor=#ffffff;mainText=;buttonStyle=round;fontSize=17;fontStyle=1;fillColor=#008cff;whiteSpace=wrap;" vertex="1" parent="151">
                    <mxGeometry x="523" y="481" width="150" height="50" as="geometry"/>
                </mxCell>
                <mxCell id="303" value="&lt;span style=&quot;color: rgb(240, 240, 240); font-family: Helvetica; font-size: 20px; font-style: normal; font-variant-ligatures: normal; font-variant-caps: normal; font-weight: 400; letter-spacing: normal; orphans: 2; text-indent: 0px; text-transform: none; widows: 2; word-spacing: 0px; -webkit-text-stroke-width: 0px; background-color: rgb(42, 37, 47); text-decoration-thickness: initial; text-decoration-style: initial; text-decoration-color: initial; float: none; display: inline !important;&quot;&gt;Fourchette de prix&lt;/span&gt;" style="text;whiteSpace=wrap;html=1;fontSize=20;align=center;" vertex="1" parent="151">
                    <mxGeometry x="323" y="346" width="190" height="30" as="geometry"/>
                </mxCell>
                <mxCell id="304" value="&lt;span style=&quot;color: rgb(240, 240, 240); font-family: Helvetica; font-size: 20px; font-style: normal; font-variant-ligatures: normal; font-variant-caps: normal; font-weight: 400; letter-spacing: normal; orphans: 2; text-indent: 0px; text-transform: none; widows: 2; word-spacing: 0px; -webkit-text-stroke-width: 0px; background-color: rgb(42, 37, 47); text-decoration-thickness: initial; text-decoration-style: initial; text-decoration-color: initial; float: none; display: inline !important;&quot;&gt;Type de Logement&lt;/span&gt;" style="text;whiteSpace=wrap;html=1;fontSize=15;align=center;" vertex="1" parent="151">
                    <mxGeometry x="318" y="238.5" width="200" height="30" as="geometry"/>
                </mxCell>
                <mxCell id="305" value="" style="rounded=0;whiteSpace=wrap;html=1;fontSize=20;" vertex="1" parent="151">
                    <mxGeometry x="598" y="226" width="352" height="100" as="geometry"/>
                </mxCell>
                <mxCell id="306" value="1" style="strokeWidth=1;shadow=0;dashed=0;align=center;html=1;shape=mxgraph.mockup.forms.comboBox;strokeColor=#999999;fillColor=#ddeeff;align=left;fillColor2=#aaddff;mainText=;fontColor=#666666;fontSize=17;spacingLeft=3;" vertex="1" parent="151">
                    <mxGeometry x="730" y="278.5" width="55" height="35" as="geometry"/>
                </mxCell>
                <mxCell id="307" value="Adulte" style="rounded=0;whiteSpace=wrap;html=1;fontSize=25;" vertex="1" parent="151">
                    <mxGeometry x="650" y="278.5" width="75" height="35" as="geometry"/>
                </mxCell>
                <mxCell id="308" value="1" style="strokeWidth=1;shadow=0;dashed=0;align=center;html=1;shape=mxgraph.mockup.forms.comboBox;strokeColor=#999999;fillColor=#ddeeff;align=left;fillColor2=#aaddff;mainText=;fontColor=#666666;fontSize=17;spacingLeft=3;" vertex="1" parent="151">
                    <mxGeometry x="875" y="278.5" width="55" height="35" as="geometry"/>
                </mxCell>
                <mxCell id="309" value="Enfant" style="rounded=0;whiteSpace=wrap;html=1;fontSize=25;" vertex="1" parent="151">
                    <mxGeometry x="795" y="278.5" width="75" height="35" as="geometry"/>
                </mxCell>
                <mxCell id="310" value="&lt;span style=&quot;color: rgb(240, 240, 240); font-family: Helvetica; font-size: 20px; font-style: normal; font-variant-ligatures: normal; font-variant-caps: normal; font-weight: 400; letter-spacing: normal; orphans: 2; text-indent: 0px; text-transform: none; widows: 2; word-spacing: 0px; -webkit-text-stroke-width: 0px; background-color: rgb(42, 37, 47); text-decoration-thickness: initial; text-decoration-style: initial; text-decoration-color: initial; float: none; display: inline !important;&quot;&gt;Nombre de personnes&lt;/span&gt;" style="text;whiteSpace=wrap;html=1;fontSize=15;align=center;" vertex="1" parent="151">
                    <mxGeometry x="670" y="226" width="230" height="30" as="geometry"/>
                </mxCell>
                <mxCell id="311" value="&lt;p style=&quot;line-height: 50%;&quot;&gt;&lt;br&gt;&lt;/p&gt;" style="rounded=0;whiteSpace=wrap;html=1;fontSize=50;" vertex="1" parent="151">
                    <mxGeometry x="598" y="346" width="352" height="100" as="geometry"/>
                </mxCell>
                <mxCell id="312" value="" style="rounded=1;whiteSpace=wrap;html=1;fontSize=30;" vertex="1" parent="151">
                    <mxGeometry x="635" y="381" width="140" height="60" as="geometry"/>
                </mxCell>
                <mxCell id="313" value="&lt;font style=&quot;font-size: 15px;&quot;&gt;jj/mm/YYYY&lt;/font&gt;" style="rounded=0;whiteSpace=wrap;html=1;fontSize=30;align=center;" vertex="1" parent="151">
                    <mxGeometry x="645" y="411" width="120" height="30" as="geometry"/>
                </mxCell>
                <mxCell id="314" value="&lt;font style=&quot;font-size: 20px;&quot;&gt;Du&lt;/font&gt;" style="rounded=0;whiteSpace=wrap;html=1;fontSize=30;align=left;" vertex="1" parent="151">
                    <mxGeometry x="645" y="381" width="120" height="30" as="geometry"/>
                </mxCell>
                <mxCell id="315" value="" style="rounded=1;whiteSpace=wrap;html=1;fontSize=30;" vertex="1" parent="151">
                    <mxGeometry x="795" y="381" width="140" height="60" as="geometry"/>
                </mxCell>
                <mxCell id="316" value="&lt;div style=&quot;text-align: center;&quot;&gt;&lt;span style=&quot;background-color: initial;&quot;&gt;&lt;font style=&quot;font-size: 15px;&quot;&gt;jj/mm/YYYY&lt;/font&gt;&lt;/span&gt;&lt;/div&gt;" style="rounded=0;whiteSpace=wrap;html=1;fontSize=30;align=left;" vertex="1" parent="151">
                    <mxGeometry x="805" y="411" width="120" height="30" as="geometry"/>
                </mxCell>
                <mxCell id="317" value="&lt;font style=&quot;font-size: 20px;&quot;&gt;Au&lt;/font&gt;" style="rounded=0;whiteSpace=wrap;html=1;fontSize=30;align=left;" vertex="1" parent="151">
                    <mxGeometry x="805" y="381" width="120" height="30" as="geometry"/>
                </mxCell>
                <mxCell id="318" value="&lt;span style=&quot;color: rgb(240, 240, 240); font-family: Helvetica; font-size: 20px; font-style: normal; font-variant-ligatures: normal; font-variant-caps: normal; font-weight: 400; letter-spacing: normal; orphans: 2; text-indent: 0px; text-transform: none; widows: 2; word-spacing: 0px; -webkit-text-stroke-width: 0px; background-color: rgb(42, 37, 47); text-decoration-thickness: initial; text-decoration-style: initial; text-decoration-color: initial; float: none; display: inline !important;&quot;&gt;Date du Séjour&lt;/span&gt;" style="text;whiteSpace=wrap;html=1;fontSize=15;align=center;" vertex="1" parent="151">
                    <mxGeometry x="700" y="341" width="170" height="30" as="geometry"/>
                </mxCell>
            </root>
        </mxGraphModel>
    </diagram>
</mxfile>